<?xml version="1.0" encoding="utf-8"?>
<svg viewBox="139.268 98.992 197.859 25.42" width="197.859" height="25.42" xmlns="http://www.w3.org/2000/svg">
    <path d="M 153.184 98.992 C 154.433 98.992 155.565 99.178 156.579 99.549 C 157.594 99.92 158.457 100.427 159.168 101.07 C 159.879 101.713 160.427 102.465 160.81 103.325 C 161.193 104.184 161.385 105.096 161.385 106.061 L 161.385 117.343 C 161.385 118.308 161.193 119.22 160.81 120.079 C 160.427 120.939 159.879 121.691 159.168 122.334 C 158.457 122.977 157.594 123.484 156.579 123.855 C 155.565 124.226 154.433 124.412 153.184 124.412 L 147.469 124.412 C 146.22 124.412 145.088 124.226 144.073 123.855 C 143.059 123.484 142.196 122.977 141.485 122.334 C 140.774 121.691 140.226 120.939 139.843 120.079 C 139.46 119.22 139.268 118.308 139.268 117.343 L 139.268 106.061 C 139.268 105.096 139.46 104.184 139.843 103.325 C 140.226 102.465 140.774 101.713 141.485 101.07 C 142.196 100.427 143.059 99.92 144.073 99.549 C 145.088 99.178 146.22 98.992 147.469 98.992 L 153.184 98.992 Z"
          style="fill: black;">
    </path>
    <path d="M 156.709 100.662 L 145.985 100.662 L 145.985 102.629 L 150.363 102.629 L 150.363 116.007 L 152.349 116.007 L 152.349 102.629 L 156.709 102.629 L 156.709 100.662 Z"
          style="fill: white;">
    </path>
    <path d="M 175.149 98.992 C 176.39833333333334 98.992 177.53 99.17766666666667 178.544 99.549 C 179.55866666666668 99.91966666666667 180.42133333333334 100.42666666666666 181.132 101.07 C 181.84333333333333 101.71333333333332 182.39100000000002 102.465 182.775 103.325 C 183.15833333333333 104.18433333333334 183.35 105.09633333333333 183.35 106.061 L 183.35 117.343 C 183.35 118.30766666666668 183.15833333333333 119.21966666666667 182.775 120.079 C 182.39100000000002 120.939 181.84333333333333 121.69066666666667 181.132 122.334 C 180.42133333333334 122.97733333333333 179.55866666666668 123.48433333333334 178.544 123.855 C 177.53 124.22633333333334 176.39833333333334 124.412 175.149 124.412 L 169.434 124.412 C 168.18466666666666 124.412 167.05266666666668 124.22633333333334 166.038 123.855 C 165.024 123.48433333333334 164.16133333333332 122.97733333333333 163.45 122.334 C 162.73866666666666 121.69066666666667 162.19133333333335 120.939 161.808 120.079 C 161.42466666666667 119.21966666666667 161.233 118.30766666666668 161.233 117.343 L 161.233 106.061 C 161.233 105.09633333333333 161.42466666666667 104.18433333333334 161.808 103.325 C 162.19133333333335 102.465 162.73866666666666 101.71333333333332 163.45 101.07 C 164.16133333333332 100.42666666666666 165.024 99.91966666666667 166.038 99.549 C 167.05266666666668 99.17766666666667 168.18466666666666 98.992 169.434 98.992 L 175.149 98.992 Z"
          style="fill: grey;">
    </path>
    <path d="M 177.579 103.631 L 177.301 102.072 L 176.132 100.885 L 174.258 100.662 L 170.232 100.662 L 168.376 100.885 L 167.207 102.072 L 166.929 103.631 L 166.929 112.444 L 167.207 114.003 L 168.376 115.172 L 170.232 115.413 L 174.907 115.413 L 177.078 115.135 L 176.614 113.131 L 174.87 113.428 L 170.361 113.428 L 169.174 113.242 L 168.914 112.129 L 168.914 108.307 L 177.579 108.307 L 177.579 103.631 Z M 168.914 106.358 L 168.914 103.853 L 169.063 102.796 L 170.361 102.592 L 174.147 102.592 L 175.408 102.796 L 175.594 103.891 L 175.594 106.358 L 168.914 106.358 Z"
          style="fill: white;">
    </path>
    <path d="M 197.117 98.992 C 198.366 98.992 199.498 99.178 200.512 99.549 C 201.527 99.92 202.39 100.427 203.101 101.07 C 203.812 101.713 204.36 102.465 204.743 103.325 C 205.126 104.184 205.318 105.096 205.318 106.061 L 205.318 117.343 C 205.318 118.308 205.126 119.22 204.743 120.079 C 204.36 120.939 203.812 121.691 203.101 122.334 C 202.39 122.977 201.527 123.484 200.512 123.855 C 199.498 124.226 198.366 124.412 197.117 124.412 L 191.402 124.412 C 190.153 124.412 189.021 124.226 188.006 123.855 C 186.992 123.484 186.129 122.977 185.418 122.334 C 184.707 121.691 184.159 120.939 183.776 120.079 C 183.393 119.22 183.201 118.308 183.201 117.343 L 183.201 106.061 C 183.201 105.096 183.393 104.184 183.776 103.325 C 184.159 102.465 184.707 101.713 185.418 101.07 C 186.129 100.427 186.992 99.92 188.006 99.549 C 189.021 99.178 190.153 98.992 191.402 98.992 L 197.117 98.992 Z"
          style="fill: crimson;">
    </path>
    <path d="M 199.38 100.625 L 195.168 107.305 L 191.068 100.625 L 189.287 101.386 L 193.61 108.381 L 189.324 115.339 L 191.068 116.044 L 195.168 109.587 L 199.38 116.044 L 201.143 115.339 L 196.838 108.381 L 201.217 101.311 L 199.38 100.625 Z"
          style="fill: white;">
    </path>
    <path d="M 219.085 98.992 C 220.334 98.992 221.466 99.178 222.48 99.549 C 223.495 99.92 224.358 100.427 225.069 101.07 C 225.78 101.713 226.328 102.465 226.711 103.325 C 227.094 104.184 227.286 105.096 227.286 106.061 L 227.286 117.343 C 227.286 118.308 227.094 119.22 226.711 120.079 C 226.328 120.939 225.78 121.691 225.069 122.334 C 224.358 122.977 223.495 123.484 222.48 123.855 C 221.466 124.226 220.334 124.412 219.085 124.412 L 213.37 124.412 C 212.121 124.412 210.989 124.226 209.974 123.855 C 208.96 123.484 208.097 122.977 207.386 122.334 C 206.675 121.691 206.127 120.939 205.744 120.079 C 205.361 119.22 205.169 118.308 205.169 117.343 L 205.169 106.061 C 205.169 105.096 205.361 104.184 205.744 103.325 C 206.127 102.465 206.675 101.713 207.386 101.07 C 208.097 100.427 208.96 99.92 209.974 99.549 C 210.989 99.178 212.121 98.992 213.37 98.992 L 219.085 98.992 Z"
          style="fill: darkorange;">
    </path>
    <path d="M 222.61 100.662 L 211.886 100.662 L 211.886 102.629 L 216.265 102.629 L 216.265 116.007 L 218.25 116.007 L 218.25 102.629 L 222.61 102.629 L 222.61 100.662 Z"
          style="fill: white;">
    </path>
    <path d="M 241.053 98.992 C 242.302 98.992 243.434 99.178 244.448 99.549 C 245.463 99.92 246.326 100.427 247.037 101.07 C 247.748 101.713 248.296 102.465 248.679 103.325 C 249.062 104.184 249.254 105.096 249.254 106.061 L 249.254 117.343 C 249.254 118.308 249.062 119.22 248.679 120.079 C 248.296 120.939 247.748 121.691 247.037 122.334 C 246.326 122.977 245.463 123.484 244.448 123.855 C 243.434 124.226 242.302 124.412 241.053 124.412 L 235.338 124.412 C 234.089 124.412 232.957 124.226 231.943 123.855 C 230.928 123.484 230.065 122.977 229.354 122.334 C 228.643 121.691 228.095 120.939 227.712 120.079 C 227.329 119.22 227.137 118.308 227.137 117.343 L 227.137 106.061 C 227.137 105.096 227.329 104.184 227.712 103.325 C 228.095 102.465 228.643 101.713 229.354 101.07 C 230.065 100.427 230.928 99.92 231.943 99.549 C 232.957 99.178 234.089 98.992 235.338 98.992 L 241.053 98.992 Z"
          style="fill: gold;">
    </path>
    <path d="M 242.649 113.854 L 241.424 114.04 L 236.674 114.04 L 235.468 113.854 L 235.19 112.741 L 235.19 103.853 L 235.375 102.833 L 236.674 102.629 L 241.424 102.629 L 242.723 102.833 L 242.908 103.928 L 242.908 112.815 L 242.649 113.854 Z M 244.875 103.668 L 244.615 102.109 L 243.447 100.922 L 241.535 100.662 L 236.563 100.662 L 234.67 100.922 L 233.483 102.109 L 233.26 103.668 L 233.26 113.019 L 233.483 114.615 L 234.707 115.784 L 236.563 116.007 L 241.535 116.007 L 243.447 115.784 L 244.615 114.615 L 244.875 113.019 L 244.875 103.668 Z"
          style="fill: white;">
    </path>
    <path d="M 263.021 98.992 C 264.27 98.992 265.402 99.178 266.417 99.549 C 267.431 99.92 268.294 100.427 269.005 101.07 C 269.716 101.713 270.264 102.465 270.647 103.325 C 271.03 104.184 271.222 105.096 271.222 106.061 L 271.222 117.343 C 271.222 118.308 271.03 119.22 270.647 120.079 C 270.264 120.939 269.716 121.691 269.005 122.334 C 268.294 122.977 267.431 123.484 266.417 123.855 C 265.402 124.226 264.27 124.412 263.021 124.412 L 257.306 124.412 C 256.057 124.412 254.925 124.226 253.911 123.855 C 252.896 123.484 252.033 122.977 251.322 122.334 C 250.611 121.691 250.063 120.939 249.68 120.079 C 249.297 119.22 249.105 118.308 249.105 117.343 L 249.105 106.061 C 249.105 105.096 249.297 104.184 249.68 103.325 C 250.063 102.465 250.611 101.713 251.322 101.07 C 252.033 100.427 252.896 99.92 253.911 99.549 C 254.925 99.178 256.057 98.992 257.306 98.992 L 263.021 98.992 Z"
          style="fill: darkgreen;">
    </path>
    <path d="M 265.173 114.04 L 259.477 114.04 L 259.477 100.662 L 257.51 100.662 L 257.51 116.007 L 265.173 116.007 L 265.173 114.04 Z"
          style="fill: white;">
    </path>
    <path d="M 284.989 98.992 C 286.23833333333334 98.992 287.37033333333335 99.17766666666667 288.385 99.549 C 289.399 99.91966666666667 290.26166666666666 100.42666666666666 290.973 101.07 C 291.68433333333337 101.71333333333332 292.2316666666667 102.465 292.615 103.325 C 292.99833333333333 104.18433333333334 293.19 105.09633333333333 293.19 106.061 L 293.19 117.343 C 293.19 118.30766666666668 292.99833333333333 119.21966666666667 292.615 120.079 C 292.2316666666667 120.939 291.68433333333337 121.69066666666667 290.973 122.334 C 290.26166666666666 122.97733333333333 289.399 123.48433333333334 288.385 123.855 C 287.37033333333335 124.22633333333334 286.23833333333334 124.412 284.989 124.412 L 279.274 124.412 C 278.02466666666663 124.412 276.893 124.22633333333334 275.879 123.855 C 274.8643333333334 123.48433333333334 274.0013333333334 122.97733333333333 273.29 122.334 C 272.57933333333335 121.69066666666667 272.032 120.939 271.648 120.079 C 271.26466666666664 119.21966666666667 271.073 118.30766666666668 271.073 117.343 L 271.073 106.061 C 271.073 105.09633333333333 271.26466666666664 104.18433333333334 271.648 103.325 C 272.032 102.465 272.57933333333335 101.71333333333332 273.29 101.07 C 274.0013333333334 100.42666666666666 274.8643333333334 99.91966666666667 275.879 99.549 C 276.893 99.17766666666667 278.02466666666663 98.992 279.274 98.992 L 284.989 98.992 Z"
          style="fill: darkblue;">
    </path>
    <path d="M 286.585 113.854 L 285.36 114.04 L 280.61 114.04 L 279.404 113.854 L 279.126 112.741 L 279.126 103.853 L 279.311 102.833 L 280.61 102.629 L 285.36 102.629 L 286.659 102.833 L 286.845 103.928 L 286.845 112.815 L 286.585 113.854 Z M 288.811 103.668 L 288.552 102.109 L 287.383 100.922 L 285.472 100.662 L 280.499 100.662 L 278.606 100.922 L 277.419 102.109 L 277.196 103.668 L 277.196 113.019 L 277.419 114.615 L 278.643 115.784 L 280.499 116.007 L 285.472 116.007 L 287.383 115.784 L 288.552 114.615 L 288.811 113.019 L 288.811 103.668 Z"
          style="fill: white;">
    </path>
    <path d="M 306.957 98.992 C 308.206 98.992 309.338 99.178 310.353 99.549 C 311.367 99.92 312.23 100.427 312.941 101.07 C 313.652 101.713 314.2 102.465 314.583 103.325 C 314.966 104.184 315.158 105.096 315.158 106.061 L 315.158 117.343 C 315.158 118.308 314.966 119.22 314.583 120.079 C 314.2 120.939 313.652 121.691 312.941 122.334 C 312.23 122.977 311.367 123.484 310.353 123.855 C 309.338 124.226 308.206 124.412 306.957 124.412 L 301.242 124.412 C 299.993 124.412 298.861 124.226 297.847 123.855 C 296.832 123.484 295.97 122.977 295.259 122.334 C 294.548 121.691 294 120.939 293.616 120.079 C 293.233 119.22 293.041 118.308 293.041 117.343 L 293.041 106.061 C 293.041 105.096 293.233 104.184 293.616 103.325 C 294 102.465 294.548 101.713 295.259 101.07 C 295.97 100.427 296.832 99.92 297.847 99.549 C 298.861 99.178 299.993 98.992 301.242 98.992 L 306.957 98.992 Z"
          style="fill: indigo;">
    </path>
    <path d="M 302.838 102.592 L 307.662 102.592 L 309.574 102.907 L 309.945 100.922 L 307.792 100.662 L 302.801 100.662 L 300.908 100.959 L 299.721 102.146 L 299.461 103.705 L 299.461 113.019 L 299.721 114.615 L 300.946 115.784 L 302.801 116.007 L 307.44 116.007 L 309.314 115.784 L 310.52 114.615 L 310.78 113.019 L 310.78 108.14 L 305.399 108.14 L 305.399 110.125 L 308.813 110.125 L 308.813 112.741 C 308.75100000000003 112.939 308.7076666666667 113.12466666666667 308.683 113.298 C 308.65833333333336 113.47133333333333 308.615 113.65666666666667 308.553 113.854 L 307.328 114.04 L 302.838 114.04 L 301.706 113.854 L 301.447 112.667 L 301.447 103.891 L 301.632 102.87 L 302.838 102.592 Z"
          style="fill: white;">
    </path>
    <path d="M 328.925 98.992 C 330.1743333333333 98.992 331.3063333333333 99.17766666666667 332.321 99.549 C 333.335 99.91966666666667 334.19766666666663 100.42666666666666 334.909 101.07 C 335.62033333333335 101.71333333333332 336.16766666666666 102.465 336.551 103.325 C 336.935 104.18433333333334 337.127 105.09633333333333 337.127 106.061 L 337.127 117.343 C 337.127 118.30766666666668 336.935 119.21966666666667 336.551 120.079 C 336.16766666666666 120.939 335.62033333333335 121.69066666666667 334.909 122.334 C 334.19766666666663 122.97733333333333 333.335 123.48433333333334 332.321 123.855 C 331.3063333333333 124.22633333333334 330.1743333333333 124.412 328.925 124.412 L 323.211 124.412 C 321.96166666666664 124.412 320.82966666666664 124.22633333333334 319.815 123.855 C 318.801 123.48433333333334 317.93833333333333 122.97733333333333 317.227 122.334 C 316.5156666666667 121.69066666666667 315.96833333333336 120.939 315.585 120.079 C 315.201 119.21966666666667 315.009 118.30766666666668 315.009 117.343 L 315.009 106.061 C 315.009 105.09633333333333 315.201 104.18433333333334 315.585 103.325 C 315.96833333333336 102.465 316.5156666666667 101.71333333333332 317.227 101.07 C 317.93833333333333 100.42666666666666 318.801 99.91966666666667 319.815 99.549 C 320.82966666666664 99.17766666666667 321.96166666666664 98.992 323.211 98.992 L 328.925 98.992 Z"
          style="fill: darkviolet;">
    </path>
    <path d="M 323.6 100.662 L 321.281 100.662 L 325.92 111.683 L 325.92 116.007 L 327.886 116.007 L 327.886 111.721 L 332.599 100.662 L 330.28 100.662 L 326.903 108.993 L 323.6 100.662 Z"
          style="fill: white;">
    </path>
</svg>