<?xml version="1.0" encoding="utf-8"?>
<svg viewBox="139.268 98.992 197.859 25.42" width="197.859" height="25.42" xmlns="http://www.w3.org/2000/svg">
  <path d="M 153.184 98.992 C 154.433 98.992 155.565 99.178 156.579 99.549 C 157.594 99.92 158.457 100.427 159.168 101.07 C 159.879 101.713 160.427 102.465 160.81 103.325 C 161.193 104.184 161.385 105.096 161.385 106.061 L 161.385 117.343 C 161.385 118.308 161.193 119.22 160.81 120.079 C 160.427 120.939 159.879 121.691 159.168 122.334 C 158.457 122.977 157.594 123.484 156.579 123.855 C 155.565 124.226 154.433 124.412 153.184 124.412 L 147.469 124.412 C 146.22 124.412 145.088 124.226 144.073 123.855 C 143.059 123.484 142.196 122.977 141.485 122.334 C 140.774 121.691 140.226 120.939 139.843 120.079 C 139.46 119.22 139.268 118.308 139.268 117.343 L 139.268 106.061 C 139.268 105.096 139.46 104.184 139.843 103.325 C 140.226 102.465 140.774 101.713 141.485 101.07 C 142.196 100.427 143.059 99.92 144.073 99.549 C 145.088 99.178 146.22 98.992 147.469 98.992 L 153.184 98.992 Z" style="fill: rgb(46, 46, 46);"/>
  <path d="M 152.955 101 C 154.028 101 155 101.16 155.872 101.479 C 156.743 101.797 157.485 102.233 158.095 102.785 C 158.706 103.338 159.177 103.984 159.506 104.722 C 159.835 105.46 160 106.244 160 107.073 L 160 116.765 C 160 117.593 159.835 118.377 159.506 119.115 C 159.177 119.854 158.706 120.5 158.095 121.052 C 157.485 121.605 156.743 122.04 155.872 122.359 C 155 122.678 154.028 122.837 152.955 122.837 L 148.045 122.837 C 146.972 122.837 146 122.678 145.128 122.359 C 144.257 122.04 143.515 121.605 142.905 121.052 C 142.294 120.5 141.823 119.854 141.494 119.115 C 141.165 118.377 141 117.593 141 116.765 L 141 107.073 C 141 106.244 141.165 105.46 141.494 104.722 C 141.823 103.984 142.294 103.338 142.905 102.785 C 143.515 102.233 144.257 101.797 145.128 101.479 C 146 101.16 146.972 101 148.045 101 L 152.955 101 Z" style="fill: black;"/>
  <path d="M 156.709 103 L 145.985 103 L 145.985 104.967 L 150.363 104.967 L 150.363 118.345 L 152.349 118.345 L 152.349 104.967 L 156.709 104.967 L 156.709 103 Z" style="fill: white;"/>
  <path d="M 175.149 98.992 C 176.39833333333334 98.992 177.53 99.17766666666667 178.544 99.549 C 179.55866666666668 99.91966666666667 180.42133333333334 100.42666666666666 181.132 101.07 C 181.84333333333333 101.71333333333332 182.39100000000002 102.465 182.775 103.325 C 183.15833333333333 104.18433333333334 183.35 105.09633333333333 183.35 106.061 L 183.35 117.343 C 183.35 118.30766666666668 183.15833333333333 119.21966666666667 182.775 120.079 C 182.39100000000002 120.939 181.84333333333333 121.69066666666667 181.132 122.334 C 180.42133333333334 122.97733333333333 179.55866666666668 123.48433333333334 178.544 123.855 C 177.53 124.22633333333334 176.39833333333334 124.412 175.149 124.412 L 169.434 124.412 C 168.18466666666666 124.412 167.05266666666668 124.22633333333334 166.038 123.855 C 165.024 123.48433333333334 164.16133333333332 122.97733333333333 163.45 122.334 C 162.73866666666666 121.69066666666667 162.19133333333335 120.939 161.808 120.079 C 161.42466666666667 119.21966666666667 161.233 118.30766666666668 161.233 117.343 L 161.233 106.061 C 161.233 105.09633333333333 161.42466666666667 104.18433333333334 161.808 103.325 C 162.19133333333335 102.465 162.73866666666666 101.71333333333332 163.45 101.07 C 164.16133333333332 100.42666666666666 165.024 99.91966666666667 166.038 99.549 C 167.05266666666668 99.17766666666667 168.18466666666666 98.992 169.434 98.992 L 175.149 98.992 Z" style="fill: rgb(115, 115, 115);"/>
  <path d="M 174.955 101 C 176.027 101 177 101.161 177.871 101.479 C 178.742 101.797 179.483 102.233 180.094 102.785 C 180.705 103.338 181.175 103.984 181.506 104.722 C 181.836 105.46 182 106.244 182 107.072 L 182 116.764 C 182 117.594 181.836 118.376 181.506 119.116 C 181.175 119.855 180.705 120.501 180.094 121.053 C 179.483 121.605 178.742 122.041 177.871 122.359 C 177 122.678 176.027 122.838 174.955 122.838 L 170.045 122.838 C 168.973 122.838 168 122.678 167.128 122.359 C 166.258 122.041 165.516 121.605 164.905 121.053 C 164.294 120.501 163.824 119.855 163.494 119.116 C 163.164 118.376 163 117.594 163 116.764 L 163 107.072 C 163 106.244 163.164 105.46 163.494 104.722 C 163.824 103.984 164.294 103.338 164.905 102.785 C 165.516 102.233 166.258 101.797 167.128 101.479 C 168 101.161 168.973 101 170.045 101 L 174.955 101 Z" style="fill: grey;"/>
  <path d="M 177.579 105.969 L 177.301 104.41 L 176.132 103.223 L 174.258 103 L 170.232 103 L 168.376 103.223 L 167.207 104.41 L 166.929 105.969 L 166.929 114.782 L 167.207 116.341 L 168.376 117.51 L 170.232 117.751 L 174.907 117.751 L 177.078 117.473 L 176.614 115.469 L 174.87 115.766 L 170.361 115.766 L 169.174 115.58 L 168.914 114.467 L 168.914 110.645 L 177.579 110.645 L 177.579 105.969 Z M 168.914 108.696 L 168.914 106.191 L 169.063 105.134 L 170.361 104.93 L 174.147 104.93 L 175.408 105.134 L 175.594 106.229 L 175.594 108.696 L 168.914 108.696 Z" style="fill: white;"/>
  <path d="M 197.117 98.992 C 198.366 98.992 199.498 99.178 200.512 99.549 C 201.527 99.92 202.39 100.427 203.101 101.07 C 203.812 101.713 204.36 102.465 204.743 103.325 C 205.126 104.184 205.318 105.096 205.318 106.061 L 205.318 117.343 C 205.318 118.308 205.126 119.22 204.743 120.079 C 204.36 120.939 203.812 121.691 203.101 122.334 C 202.39 122.977 201.527 123.484 200.512 123.855 C 199.498 124.226 198.366 124.412 197.117 124.412 L 191.402 124.412 C 190.153 124.412 189.021 124.226 188.006 123.855 C 186.992 123.484 186.129 122.977 185.418 122.334 C 184.707 121.691 184.159 120.939 183.776 120.079 C 183.393 119.22 183.201 118.308 183.201 117.343 L 183.201 106.061 C 183.201 105.096 183.393 104.184 183.776 103.325 C 184.159 102.465 184.707 101.713 185.418 101.07 C 186.129 100.427 186.992 99.92 188.006 99.549 C 189.021 99.178 190.153 98.992 191.402 98.992 L 197.117 98.992 Z" style="fill: rgb(205, 20, 57);"/>
  <path d="M 196.955 101 C 198.028 101 199 101.16 199.871 101.479 C 200.743 101.797 201.485 102.233 202.095 102.785 C 202.706 103.338 203.177 103.984 203.506 104.722 C 203.835 105.46 204 106.244 204 107.073 L 204 116.765 C 204 117.594 203.835 118.377 203.506 119.115 C 203.177 119.854 202.706 120.5 202.095 121.052 C 201.485 121.605 200.743 122.04 199.871 122.359 C 199 122.678 198.028 122.838 196.955 122.838 L 192.045 122.838 C 190.972 122.838 190 122.678 189.128 122.359 C 188.257 122.04 187.515 121.605 186.905 121.052 C 186.294 120.5 185.823 119.854 185.494 119.115 C 185.165 118.377 185 117.594 185 116.765 L 185 107.073 C 185 106.244 185.165 105.46 185.494 104.722 C 185.823 103.984 186.294 103.338 186.905 102.785 C 187.515 102.233 188.257 101.797 189.128 101.479 C 190 101.16 190.972 101 192.045 101 L 196.955 101 Z" style="fill: crimson;"/>
  <path d="M 199.38 103 L 195.168 109.68 L 191.068 103 L 189.287 103.761 L 193.61 110.756 L 189.324 117.714 L 191.068 118.419 L 195.168 111.962 L 199.38 118.419 L 201.143 117.714 L 196.838 110.756 L 201.217 103.686 L 199.38 103 Z" style="fill: white;"/>
  <path d="M 219.116 99 C 220.365 99 221.497 99.186 222.511 99.557 C 223.526 99.928 224.389 100.435 225.1 101.078 C 225.811 101.721 226.359 102.473 226.742 103.333 C 227.125 104.192 227.317 105.104 227.317 106.069 L 227.317 117.351 C 227.317 118.316 227.125 119.228 226.742 120.087 C 226.359 120.947 225.811 121.699 225.1 122.342 C 224.389 122.985 223.526 123.492 222.511 123.863 C 221.497 124.234 220.365 124.42 219.116 124.42 L 213.401 124.42 C 212.152 124.42 211.02 124.234 210.005 123.863 C 208.991 123.492 208.128 122.985 207.417 122.342 C 206.706 121.699 206.158 120.947 205.775 120.087 C 205.392 119.228 205.2 118.316 205.2 117.351 L 205.2 106.069 C 205.2 105.104 205.392 104.192 205.775 103.333 C 206.158 102.473 206.706 101.721 207.417 101.078 C 208.128 100.435 208.991 99.928 210.005 99.557 C 211.02 99.186 212.152 99 213.401 99 L 219.116 99 Z" style="fill: rgb(234, 129, 0);"/>
  <path d="M 218.955 101 C 220.027 101 221 101.161 221.871 101.479 C 222.742 101.797 223.484 102.233 224.095 102.785 C 224.706 103.338 225.176 103.984 225.506 104.722 C 225.836 105.46 226 106.244 226 107.072 L 226 116.764 C 226 117.594 225.836 118.376 225.506 119.116 C 225.176 119.855 224.706 120.501 224.095 121.053 C 223.484 121.605 222.742 122.041 221.871 122.359 C 221 122.678 220.027 122.838 218.955 122.838 L 214.045 122.838 C 212.973 122.838 212 122.678 211.128 122.359 C 210.258 122.041 209.516 121.605 208.905 121.053 C 208.294 120.501 207.824 119.855 207.494 119.116 C 207.164 118.376 207 117.594 207 116.764 L 207 107.072 C 207 106.244 207.164 105.46 207.494 104.722 C 207.824 103.984 208.294 103.338 208.905 102.785 C 209.516 102.233 210.258 101.797 211.128 101.479 C 212 101.161 212.973 101 214.045 101 L 218.955 101 Z" style="fill: rgb(255, 140, 0);"/>
  <path d="M 222.61 103 L 211.886 103 L 211.886 104.967 L 216.265 104.967 L 216.265 118.345 L 218.25 118.345 L 218.25 104.967 L 222.61 104.967 L 222.61 103 Z" style="fill: white;"/>
  <path d="M 241.053 98.992 C 242.302 98.992 243.434 99.178 244.448 99.549 C 245.463 99.92 246.326 100.427 247.037 101.07 C 247.748 101.713 248.296 102.465 248.679 103.325 C 249.062 104.184 249.254 105.096 249.254 106.061 L 249.254 117.343 C 249.254 118.308 249.062 119.22 248.679 120.079 C 248.296 120.939 247.748 121.691 247.037 122.334 C 246.326 122.977 245.463 123.484 244.448 123.855 C 243.434 124.226 242.302 124.412 241.053 124.412 L 235.338 124.412 C 234.089 124.412 232.957 124.226 231.943 123.855 C 230.928 123.484 230.065 122.977 229.354 122.334 C 228.643 121.691 228.095 120.939 227.712 120.079 C 227.329 119.22 227.137 118.308 227.137 117.343 L 227.137 106.061 C 227.137 105.096 227.329 104.184 227.712 103.325 C 228.095 102.465 228.643 101.713 229.354 101.07 C 230.065 100.427 230.928 99.92 231.943 99.549 C 232.957 99.178 234.089 98.992 235.338 98.992 L 241.053 98.992 Z" style="fill: rgb(239, 203, 0);"/>
  <path d="M 240.955 101 C 242.027 101 243 101.161 243.871 101.479 C 244.743 101.797 245.484 102.233 246.095 102.785 C 246.706 103.338 247.176 103.984 247.506 104.722 C 247.836 105.46 248 106.244 248 107.072 L 248 116.764 C 248 117.594 247.836 118.376 247.506 119.116 C 247.176 119.855 246.706 120.501 246.095 121.053 C 245.484 121.605 244.743 122.041 243.871 122.359 C 243 122.678 242.027 122.838 240.955 122.838 L 236.045 122.838 C 234.973 122.838 234 122.678 233.129 122.359 C 232.258 122.041 231.516 121.605 230.905 121.053 C 230.294 120.501 229.824 119.855 229.494 119.116 C 229.164 118.376 229 117.594 229 116.764 L 229 107.072 C 229 106.244 229.164 105.46 229.494 104.722 C 229.824 103.984 230.294 103.338 230.905 102.785 C 231.516 102.233 232.258 101.797 233.129 101.479 C 234 101.161 234.973 101 236.045 101 L 240.955 101 Z" style="fill: gold;"/>
  <path d="M 242.649 116.192 L 241.424 116.378 L 236.674 116.378 L 235.468 116.192 L 235.19 115.079 L 235.19 106.191 L 235.375 105.171 L 236.674 104.967 L 241.424 104.967 L 242.723 105.171 L 242.908 106.266 L 242.908 115.153 L 242.649 116.192 Z M 244.875 106.006 L 244.615 104.447 L 243.447 103.26 L 241.535 103 L 236.563 103 L 234.67 103.26 L 233.483 104.447 L 233.26 106.006 L 233.26 115.357 L 233.483 116.953 L 234.707 118.122 L 236.563 118.345 L 241.535 118.345 L 243.447 118.122 L 244.615 116.953 L 244.875 115.357 L 244.875 106.006 Z" style="fill: white;"/>
  <path d="M 263.021 99 C 264.27 99 265.402 99.186 266.417 99.557 C 267.431 99.928 268.294 100.435 269.005 101.078 C 269.716 101.721 270.264 102.473 270.647 103.333 C 271.03 104.192 271.222 105.104 271.222 106.069 L 271.222 117.351 C 271.222 118.316 271.03 119.228 270.647 120.087 C 270.264 120.947 269.716 121.699 269.005 122.342 C 268.294 122.985 267.431 123.492 266.417 123.863 C 265.402 124.234 264.27 124.42 263.021 124.42 L 257.306 124.42 C 256.057 124.42 254.925 124.234 253.911 123.863 C 252.896 123.492 252.033 122.985 251.322 122.342 C 250.611 121.699 250.063 120.947 249.68 120.087 C 249.297 119.228 249.105 118.316 249.105 117.351 L 249.105 106.069 C 249.105 105.104 249.297 104.192 249.68 103.333 C 250.063 102.473 250.611 101.721 251.322 101.078 C 252.033 100.435 252.896 99.928 253.911 99.557 C 254.925 99.186 256.057 99 257.306 99 L 263.021 99 Z" style="fill: rgb(0, 86, 0);"/>
  <path d="M 262.955 101 C 264.027 101 265 101.161 265.872 101.479 C 266.743 101.797 267.484 102.233 268.095 102.785 C 268.706 103.338 269.176 103.984 269.506 104.722 C 269.836 105.46 270 106.244 270 107.072 L 270 116.764 C 270 117.594 269.836 118.376 269.506 119.116 C 269.176 119.855 268.706 120.501 268.095 121.053 C 267.484 121.605 266.743 122.041 265.872 122.359 C 265 122.678 264.027 122.838 262.955 122.838 L 258.045 122.838 C 256.973 122.838 256 122.678 255.129 122.359 C 254.258 122.041 253.516 121.605 252.905 121.053 C 252.294 120.501 251.824 119.855 251.494 119.116 C 251.164 118.376 251 117.594 251 116.764 L 251 107.072 C 251 106.244 251.164 105.46 251.494 104.722 C 251.824 103.984 252.294 103.338 252.905 102.785 C 253.516 102.233 254.258 101.797 255.129 101.479 C 256 101.161 256.973 101 258.045 101 L 262.955 101 Z" style="fill: darkgreen;"/>
  <path d="M 265.173 116.378 L 259.477 116.378 L 259.477 103 L 257.51 103 L 257.51 118.345 L 265.173 118.345 L 265.173 116.378 Z" style="fill: white;"/>
  <path d="M 284.989 98.992 C 286.23833333333334 98.992 287.37033333333335 99.17766666666667 288.385 99.549 C 289.399 99.91966666666667 290.26166666666666 100.42666666666666 290.973 101.07 C 291.68433333333337 101.71333333333332 292.2316666666667 102.465 292.615 103.325 C 292.99833333333333 104.18433333333334 293.19 105.09633333333333 293.19 106.061 L 293.19 117.343 C 293.19 118.30766666666668 292.99833333333333 119.21966666666667 292.615 120.079 C 292.2316666666667 120.939 291.68433333333337 121.69066666666667 290.973 122.334 C 290.26166666666666 122.97733333333333 289.399 123.48433333333334 288.385 123.855 C 287.37033333333335 124.22633333333334 286.23833333333334 124.412 284.989 124.412 L 279.274 124.412 C 278.02466666666663 124.412 276.893 124.22633333333334 275.879 123.855 C 274.8643333333334 123.48433333333334 274.0013333333334 122.97733333333333 273.29 122.334 C 272.57933333333335 121.69066666666667 272.032 120.939 271.648 120.079 C 271.26466666666664 119.21966666666667 271.073 118.30766666666668 271.073 117.343 L 271.073 106.061 C 271.073 105.09633333333333 271.26466666666664 104.18433333333334 271.648 103.325 C 272.032 102.465 272.57933333333335 101.71333333333332 273.29 101.07 C 274.0013333333334 100.42666666666666 274.8643333333334 99.91966666666667 275.879 99.549 C 276.893 99.17766666666667 278.02466666666663 98.992 279.274 98.992 L 284.989 98.992 Z" style="fill: rgb(0, 0, 98);"/>
  <path d="M 284.955 101 C 286.028 101 287 101.16 287.872 101.479 C 288.743 101.797 289.485 102.233 290.095 102.785 C 290.706 103.338 291.177 103.984 291.506 104.722 C 291.835 105.46 292 106.244 292 107.073 L 292 116.765 C 292 117.594 291.835 118.377 291.506 119.115 C 291.177 119.854 290.706 120.5 290.095 121.052 C 289.485 121.605 288.743 122.04 287.872 122.359 C 287 122.678 286.028 122.838 284.955 122.838 L 280.045 122.838 C 278.972 122.838 278 122.678 277.129 122.359 C 276.257 122.04 275.515 121.605 274.905 121.052 C 274.294 120.5 273.824 119.854 273.494 119.115 C 273.165 118.377 273 117.594 273 116.765 L 273 107.073 C 273 106.244 273.165 105.46 273.494 104.722 C 273.824 103.984 274.294 103.338 274.905 102.785 C 275.515 102.233 276.257 101.797 277.129 101.479 C 278 101.16 278.972 101 280.045 101 L 284.955 101 Z" style="fill: darkblue;"/>
  <path d="M 286.585 116.192 L 285.36 116.378 L 280.61 116.378 L 279.404 116.192 L 279.126 115.079 L 279.126 106.191 L 279.311 105.171 L 280.61 104.967 L 285.36 104.967 L 286.659 105.171 L 286.845 106.266 L 286.845 115.153 L 286.585 116.192 Z M 288.811 106.006 L 288.552 104.447 L 287.383 103.26 L 285.472 103 L 280.499 103 L 278.606 103.26 L 277.419 104.447 L 277.196 106.006 L 277.196 115.357 L 277.419 116.953 L 278.643 118.122 L 280.499 118.345 L 285.472 118.345 L 287.383 118.122 L 288.552 116.953 L 288.811 115.357 L 288.811 106.006 Z" style="fill: white;"/>
  <path d="M 306.957 98.992 C 308.206 98.992 309.338 99.178 310.353 99.549 C 311.367 99.92 312.23 100.427 312.941 101.07 C 313.652 101.713 314.2 102.465 314.583 103.325 C 314.966 104.184 315.158 105.096 315.158 106.061 L 315.158 117.343 C 315.158 118.308 314.966 119.22 314.583 120.079 C 314.2 120.939 313.652 121.691 312.941 122.334 C 312.23 122.977 311.367 123.484 310.353 123.855 C 309.338 124.226 308.206 124.412 306.957 124.412 L 301.242 124.412 C 299.993 124.412 298.861 124.226 297.847 123.855 C 296.832 123.484 295.97 122.977 295.259 122.334 C 294.548 121.691 294 120.939 293.616 120.079 C 293.233 119.22 293.041 118.308 293.041 117.343 L 293.041 106.061 C 293.041 105.096 293.233 104.184 293.616 103.325 C 294 102.465 294.548 101.713 295.259 101.07 C 295.97 100.427 296.832 99.92 297.847 99.549 C 298.861 99.178 299.993 98.992 301.242 98.992 L 306.957 98.992 Z" style="fill: rgb(60, 0, 103);"/>
  <path d="M 306.955 101 C 308.028 101 309 101.16 309.872 101.479 C 310.743 101.797 311.485 102.233 312.095 102.785 C 312.706 103.338 313.177 103.984 313.506 104.722 C 313.835 105.46 314 106.244 314 107.073 L 314 116.765 C 314 117.594 313.835 118.377 313.506 119.115 C 313.177 119.854 312.706 120.5 312.095 121.052 C 311.485 121.605 310.743 122.04 309.872 122.359 C 309 122.678 308.028 122.838 306.955 122.838 L 302.045 122.838 C 300.972 122.838 300 122.678 299.129 122.359 C 298.257 122.04 297.516 121.605 296.905 121.052 C 296.295 120.5 295.824 119.854 295.494 119.115 C 295.165 118.377 295 117.594 295 116.765 L 295 107.073 C 295 106.244 295.165 105.46 295.494 104.722 C 295.824 103.984 296.295 103.338 296.905 102.785 C 297.516 102.233 298.257 101.797 299.129 101.479 C 300 101.16 300.972 101 302.045 101 L 306.955 101 Z" style="fill: indigo;"/>
  <path d="M 302.838 104.93 L 307.662 104.93 L 309.574 105.245 L 309.945 103.26 L 307.792 103 L 302.801 103 L 300.908 103.297 L 299.721 104.484 L 299.461 106.043 L 299.461 115.357 L 299.721 116.953 L 300.946 118.122 L 302.801 118.345 L 307.44 118.345 L 309.314 118.122 L 310.52 116.953 L 310.78 115.357 L 310.78 110.478 L 305.399 110.478 L 305.399 112.463 L 308.813 112.463 L 308.813 115.079 C 308.751 115.277 308.708 115.463 308.683 115.636 C 308.658 115.809 308.615 115.995 308.553 116.192 L 307.328 116.378 L 302.838 116.378 L 301.706 116.192 L 301.447 115.005 L 301.447 106.229 L 301.632 105.208 L 302.838 104.93 Z" style="fill: white;"/>
  <path d="M 328.916 99 C 330.165 99 331.297 99.186 332.312 99.557 C 333.326 99.928 334.189 100.435 334.9 101.078 C 335.611 101.721 336.159 102.473 336.542 103.333 C 336.926 104.192 337.118 105.104 337.118 106.069 L 337.118 117.351 C 337.118 118.316 336.926 119.228 336.542 120.087 C 336.159 120.947 335.611 121.699 334.9 122.342 C 334.189 122.985 333.326 123.492 332.312 123.863 C 331.297 124.234 330.165 124.42 328.916 124.42 L 323.202 124.42 C 321.953 124.42 320.821 124.234 319.806 123.863 C 318.792 123.492 317.929 122.985 317.218 122.342 C 316.507 121.699 315.959 120.947 315.576 120.087 C 315.192 119.228 315 118.316 315 117.351 L 315 106.069 C 315 105.104 315.192 104.192 315.576 103.333 C 315.959 102.473 316.507 101.721 317.218 101.078 C 317.929 100.435 318.792 99.928 319.806 99.557 C 320.821 99.186 321.953 99 323.202 99 L 328.916 99 Z" style="fill: rgb(137, 0, 195);"/>
  <path d="M 328.455 101 C 329.527 101 330.5 101.16 331.371 101.479 C 332.242 101.797 332.983 102.232 333.594 102.785 C 334.206 103.338 334.675 103.983 335.005 104.722 C 335.336 105.46 335.5 106.244 335.5 107.072 L 335.5 116.763 C 335.5 117.593 335.336 118.375 335.005 119.115 C 334.675 119.854 334.206 120.499 333.594 121.052 C 332.983 121.605 332.242 122.04 331.371 122.358 C 330.5 122.677 329.527 122.837 328.455 122.837 L 323.545 122.837 C 322.473 122.837 321.501 122.677 320.629 122.358 C 319.758 122.04 319.017 121.605 318.406 121.052 C 317.795 120.499 317.325 119.854 316.995 119.115 C 316.664 118.375 316.5 117.593 316.5 116.763 L 316.5 107.072 C 316.5 106.244 316.664 105.46 316.995 104.722 C 317.325 103.983 317.795 103.338 318.406 102.785 C 319.017 102.232 319.758 101.797 320.629 101.479 C 321.501 101.16 322.473 101 323.545 101 L 328.455 101 Z" style="fill: darkviolet;"/>
  <path d="M 323.6 103 L 321.281 103 L 325.92 114.021 L 325.92 118.345 L 327.886 118.345 L 327.886 114.059 L 332.599 103 L 330.28 103 L 326.903 111.331 L 323.6 103 Z" style="fill: white;"/>
</svg>